PathFileType	4	(X/Y/Z)	2_2_29_p1_0-278_filt_butterworth.trc
DataRate	CameraRate	NumFrames	NumMarkers	Units	OrigDataRate	OrigDataStartFrame	OrigNumFrames
59.0	59.0	7	27	m	59.0	173	278
Frame#	Time	RHip			RKnee			RAnkle			RBigToe			RSmallToe			RHeel			LHip			LKnee			LAnkle			LBigToe			LSmallToe			LHeel			Neck			Head			Nose			RShoulder			RElbow			RWrist			RThumb			RIndex			RPinky			LShoulder			LElbow			LWrist			LThumb			LIndex			LPinky			
		X1	Y1	Z1	X2	Y2	Z2	X3	Y3	Z3	X4	Y4	Z4	X5	Y5	Z5	X6	Y6	Z6	X7	Y7	Z7	X8	Y8	Z8	X9	Y9	Z9	X10	Y10	Z10	X11	Y11	Z11	X12	Y12	Z12	X13	Y13	Z13	X14	Y14	Z14	X15	Y15	Z15	X16	Y16	Z16	X17	Y17	Z17	X18	Y18	Z18	X19	Y19	Z19	X20	Y20	Z20	X21	Y21	Z21	X22	Y22	Z22	X23	Y23	Z23	X24	Y24	Z24	X25	Y25	Z25	X26	Y26	Z26	X27	Y27	Z27	
173	2.9322033898305087	0.31523547253514533	0.5277733430648525	0.9413523568499244	0.31120579818536653	0.7031558047709705	1.407451177248593	0.29289713919441285	0.8992391446760869	1.8148511689849325	0.3033852902714555	0.6708451737517671	1.875209515863178	0.36583160066425174	0.7484966191854765	1.8893122444788253	0.28180608399192064	0.9292823984799207	1.861297506666925	0.09008300642239053	0.5043683917646614	0.9330871691963546	0.08386293394601342	0.6742484384590853	1.3856980858367942	0.06339177121225288	0.8594924991582187	1.8032137381552178	0.09874794736315545	0.7005997803570216	1.8717598580960773	0.022592904632492083	0.7240982694845096	1.8640246964285865	0.06944841019410869	0.9564140004383682	1.8766112171887697	0.2213478545031961	0.3393442650076425	0.2684244502815196	0.24158119121692762	0.18269012511992444	0.04025610101914399	0.2418309076503033	0.197855641324628	0.1808502874584233	0.39555341956773366	0.39700727335432123	0.33986723610766656	0.4192427158374945	0.502275751976657	0.6123141239447408	0.4702360359891422	0.39129149627401805	0.8417448933940674	0.4742820829515535	0.26963608862081306	0.9622222058474629	0.48096222485378337	0.2822192126592765	0.9806320164827796	0.46481522215626464	0.3717158582508372	0.9833703583190688	0.07383717255114694	0.3540240823167943	0.35239215800483725	0.006477965911443503	0.4960764378694424	0.6036549848207937	0.03238276261474763	0.3130847636073132	0.7864162160416931	0.1091329407055768	0.2566124059044804	0.870181665121446	0.0886038216719035	0.2387496802070872	0.8966563530860152	0.04846848140888434	0.2952238745239284	0.9108251232185507
174	2.949152542372881	0.3154857319663421	0.5279266404170049	0.9451650143394644	0.3111718520086899	0.703439925091856	1.4098343842910863	0.2929994812882646	0.8990280529671533	1.815826249464679	0.30333731863379826	0.6708031070774731	1.8750604627511762	0.36576727866558545	0.748499707261133	1.8892170127208479	0.2820661683746194	0.9302245379008527	1.8634049530289656	0.09025024907655606	0.5051516494165639	0.9354114292542232	0.08402238689169791	0.6750954926708796	1.3870843894852123	0.06336317233552669	0.8595852776827736	1.8032246804179093	0.09864141273802027	0.7008871093448301	1.8708858120489054	0.022517885327328232	0.7241294128163248	1.8640217773536913	0.06816274366498609	0.955447053850418	1.876400765887674	0.22182028229973008	0.34230820882280105	0.2677842514598494	0.24152036569385513	0.1828217895346356	0.04028279754907566	0.24175414176601256	0.19838742221765698	0.18315101683513724	0.3955502977171457	0.39685024704572974	0.3398658704738807	0.41922714616526147	0.5015130645224305	0.6078165765533152	0.4825422190448977	0.3834341254908546	0.8219631476333884	0.5072479887282886	0.2241545655355194	0.925505277605062	0.5073246147325008	0.2496492871933504	0.9455831635733266	0.4847829101766816	0.3367695718684144	0.9572077671214959	0.073736527610997	0.35410804135230106	0.35164314757256	0.007402347765136035	0.5028374689453559	0.5927535423187614	0.029346039218713846	0.3053311097880461	0.7584039874596846	0.10006081881006723	0.20944550877625434	0.8285570832627704	0.08458235874306687	0.18882554778796826	0.8559034055175011	0.04754476897440784	0.2615087616773131	0.8762584575314851
175	2.9661016949152543	0.31589346281099756	0.5279105882346538	0.9463449865622672	0.31037513328115895	0.7035780536516678	1.4115960891325117	0.293115502003781	0.8989598041152199	1.8162577361852377	0.30328299343658516	0.6707467153832858	1.874877657126619	0.3656507723129351	0.7483425271128035	1.888990034635136	0.28232508265042744	0.9306375489851559	1.8653157191581224	0.09053735946994847	0.5053737204031062	0.9376462826252521	0.08420704771679374	0.6762002133676166	1.388842258316823	0.0633435956171476	0.8596990277761545	1.80324335861466	0.09851583924446915	0.7011220697421214	1.8698277028243973	0.022399024238728808	0.7242187949317987	1.8640247213103478	0.06775154644658608	0.9566198093266712	1.8767576284015324	0.22235779519889223	0.3422833430604962	0.26774215005717283	0.2414271636342719	0.18285984127715407	0.04034162898959291	0.24168049516910736	0.19851853996190097	0.18465536929492773	0.39552491942440726	0.3965342830723792	0.3394787851237969	0.4192058256940415	0.4992777613364337	0.6044452895532129	0.49685339552496705	0.3684515781188505	0.7991111087644367	0.5390407762980941	0.1893529229614458	0.8853294136518812	0.5341847543100976	0.2261900158656413	0.9062423883707091	0.506446532286606	0.3052171915575971	0.9286779947922277	0.07375449112402672	0.3539134342090485	0.35094357798482567	0.009094682303990872	0.5047291871547777	0.5816996929529178	0.02679318001896151	0.29644707156404404	0.730893400372197	0.08719048600805256	0.1672746346649514	0.7859385913565204	0.07514875656942255	0.15084034565666044	0.8143903640925054	0.043448459907070754	0.23879231233731307	0.8419715367920022
176	2.983050847457627	0.31641219012734006	0.5277653247420918	0.9441008728027809	0.3090350655550982	0.7036004413782447	1.412220667221252	0.2932587151353581	0.8989753831607448	1.8163495828663783	0.3032513425974023	0.6707127807747243	1.8747984510239926	0.36556697494837853	0.74821994310066	1.888835622261027	0.282514409458283	0.9307604582831719	1.8667972621310993	0.09083077348971966	0.5052185739989926	0.9388617958054888	0.08429905922308158	0.6771027039642137	1.39016069310505	0.06334022967629761	0.8597705948529237	1.8032603991115752	0.09848236612166512	0.7010998983093324	1.8692864232033268	0.02238303415072565	0.7243948924420169	1.8640307856681069	0.06857191251904853	0.9612994394533948	1.8779985155941437	0.22345508073933004	0.3392256903924208	0.26829275267437364	0.24132474234388873	0.18274518341077456	0.04043337269683236	0.24167212054454357	0.19835783112848168	0.18451525627728943	0.3954539378744241	0.39592039378406974	0.3385037155528034	0.41902112118008217	0.4975134542028139	0.6006371810833292	0.5108105305546998	0.34692552632608264	0.7743738436284622	0.5687693587755664	0.173940070442145	0.8463861436427212	0.560376138354944	0.21271037886606317	0.8675736589361156	0.5274998355047914	0.2831472781788498	0.8968106261640829	0.0738410950927571	0.35357506250906384	0.35019433088811197	0.009911207252332351	0.5048334225947715	0.5717369484755085	0.023592969085249774	0.2822414449171719	0.704329401895327	0.0736006261454704	0.13487899842185722	0.7438474178343313	0.06258548148531946	0.11794678851410459	0.7731057306091863	0.036551430315331895	0.21734350460972182	0.8080164564127997
177	3.0	0.31704355892519587	0.5275519312990887	0.9404035234489491	0.3079285107874708	0.7035926632532042	1.412103302167378	0.293297000329748	0.8989795952373152	1.816268116378004	0.3032336339643744	0.6707332585669012	1.8748473835669508	0.3655342461458989	0.7482652052733385	1.8888467492774046	0.2826881510100246	0.9306614502335627	1.8669556775442866	0.09107018619600722	0.5050699227963357	0.9394242203025904	0.08428225100261746	0.6775595296217374	1.3907022049644566	0.06334642081089858	0.8597784437514023	1.8032733448844374	0.09854599361893832	0.7008456733008811	1.8693926747083174	0.022799358866104322	0.7246885798899272	1.8640333648818626	0.06970780440301867	0.9675822802798087	1.8796278800378445	0.22533025509091337	0.3358764840113018	0.2688969711944848	0.2413453735613593	0.1826156618090254	0.0405157909396257	0.24190411183467625	0.19892587849662619	0.1828528100492094	0.39533552957093715	0.395144789473907	0.33725703974039667	0.4186717965038586	0.4966001740184345	0.596180280285784	0.5230621226376594	0.3246180912316771	0.7493754182386997	0.597138743762542	0.17243482250608075	0.8102595935147967	0.5856523771446563	0.20377735816605638	0.8327132649802472	0.5471584166084484	0.26556241428446276	0.8628509599624989	0.0739302326447567	0.3532454637410592	0.3494309182465283	0.007924801224281764	0.5083313966758278	0.5639747617899653	0.01734504608485788	0.2646166047773507	0.678494861613046	0.058126430608296156	0.10995300716453471	0.7033401499378623	0.047117021414668864	0.08529828592666218	0.7324046811850933	0.02590899860439079	0.18601672780159917	0.773531755396113
178	3.016949152542373	0.3175650019157196	0.527383298389152	0.9384926612547976	0.3074757763978335	0.7036088771397073	1.4119249255242206	0.29286153501298184	0.8988711995431629	1.8158425440083141	0.3032164289364235	0.6707876512102932	1.8749302905753353	0.36553006184698406	0.748423847599357	1.8889577127912252	0.2828373493191687	0.9304388143260303	1.8654085379276495	0.09117803693487961	0.5051923545599456	0.9406812325113352	0.0842385877548885	0.6776586085947822	1.3907563845032036	0.0633521249404495	0.8597565542358413	1.803288640412318	0.09862317296868435	0.7005901609945843	1.8699722542760187	0.02390012004353022	0.7250420485296273	1.86403572679218	0.07009369623651321	0.9719209452956379	1.8807491316079095	0.22722345790421877	0.33408679737224234	0.26921366292178145	0.24181638307193382	0.1829946863204917	0.04043155639491495	0.2425050506497725	0.201218350491139	0.1803059061168159	0.3952120188708734	0.3945608635452848	0.3363837665683998	0.41855119535398644	0.49472398896572195	0.5920423746401983	0.5336516604124484	0.30833645910054636	0.7240808040728683	0.6233660462289254	0.17313198739013927	0.777425345080934	0.611161023341839	0.19367390014358904	0.8008208613001442	0.5650704582036982	0.24445231361505415	0.8287714072308644	0.07395856222533571	0.35284969779081277	0.3480950865861882	0.0017680692866203114	0.5185285389942134	0.5595488615482163	0.007491130887614453	0.24957135598857527	0.6534899687168323	0.03893302097343957	0.08926498281244226	0.6647968955838044	0.029035105527516272	0.05821548352582427	0.6923729252367606	0.013133909053211407	0.14580055161296765	0.7381408550719607
179	3.0338983050847457	0.31753811882670957	0.5277634276413855	0.9397017639375752	0.30749657797606156	0.7036173859359657	1.412226735164818	0.2916765559847793	0.8985862000686764	1.8148448369426518	0.30320525424553163	0.6708171216842146	1.8749423075665228	0.3655318042571957	0.748534062683385	1.8890421743567536	0.2828916762229596	0.9302728645462764	1.8631931262588632	0.09118861617371812	0.5057242124340527	0.9435230147558542	0.08423372086745427	0.6775812892130784	1.3906840691631304	0.06335366004007711	0.8597614759190829	1.8033135067491048	0.09867149146308248	0.700456348598649	1.8709091188854865	0.02537717245016433	0.7253633454493081	1.8640387791501394	0.06977027166638199	0.9732167030724436	1.881085762093191	0.22826846703446554	0.33348239748483205	0.2692306158729806	0.24306899444881563	0.18472061850970797	0.03991063170715486	0.2432846093446604	0.20462527676923128	0.17778496107480204	0.39516061544776443	0.39434090522986254	0.3361611223935046	0.4194262175700138	0.48924381588349686	0.5892176869081588	0.5437403018559703	0.30058812711456157	0.6983000513073278	0.6453275043472237	0.17144410268853513	0.7472944661100585	0.6372250995944673	0.18286842413931317	0.7690393994365177	0.580241673705608	0.2187798985226313	0.7947268334375038	0.07388437306373334	0.3522260646399702	0.3454445842392708	-0.008120779464064675	0.5310839142326605	0.5592753796287606	-0.004531771003938205	0.2400734437388251	0.6301563101685344	0.017415600400536642	0.07421046390304073	0.6282117809515341	0.009312431085481097	0.04291824194097341	0.6536705249353556	0.0022417312899014824	0.10861079270657936	0.7022373569934774
